HIERARCHY
ROOT	Hips
{
	OFFSET	0.000	0.000	0.000
	CHANNELS	6	Xposition	Yposition	Zposition	Yrotation	Xrotation	Zrotation
	JOINT	Chest
	{
		OFFSET	0.000	8.484	-3.948
		CHANNELS	3	Yrotation	Xrotation	Zrotation
		JOINT	Chest2
		{
			OFFSET	0.649	24.042	0.540
			CHANNELS	3	Yrotation	Xrotation	Zrotation
			JOINT	LeftCollar
			{
				OFFSET	7.689	16.215	2.455
				CHANNELS	3	Yrotation	Xrotation	Zrotation
				JOINT	LeftShoulder
				{
					OFFSET	13.460	0.000	0.000
					CHANNELS	3	Yrotation	Xrotation	Zrotation
					JOINT	LeftElbow
					{
						OFFSET	26.100	-0.000	0.000
						CHANNELS	3	Yrotation	Xrotation	Zrotation
						JOINT	LeftWrist
						{
							OFFSET	28.740	-0.000	-0.000
							CHANNELS	3	Yrotation	Xrotation	Zrotation
							End Site
							{
								OFFSET	0.006	-10.922	-0.000
							}
						}
					}
				}
			}
			JOINT	Neck
			{
				OFFSET	0.649	24.042	0.540
				CHANNELS	3	Yrotation	Xrotation	Zrotation
				JOINT	Head
				{
					OFFSET	-0.000	10.452	0.000
					CHANNELS	3	Yrotation	Xrotation	Zrotation
					End Site
					{
						OFFSET	-0.012	20.534	-0.005
					}
				}
			}
			JOINT	RightCollar
			{
				OFFSET	-6.391	16.215	2.455
				CHANNELS	3	Yrotation	Xrotation	Zrotation
				JOINT	RightShoulder
				{
					OFFSET	-13.460	-0.000	-0.000
					CHANNELS	3	Yrotation	Xrotation	Zrotation
					JOINT	RightElbow
					{
						OFFSET	-26.100	-0.000	-0.000
						CHANNELS	3	Yrotation	Xrotation	Zrotation
						JOINT	RightWrist
						{
							OFFSET	-28.740	-0.000	-0.000
							CHANNELS	3	Yrotation	Xrotation	Zrotation
							End Site
							{
								OFFSET	0.006	-10.922	0.000
							}
						}
					}
				}
			}
		}
	}
	JOINT	LeftHip
	{
		OFFSET	8.100	-0.000	0.000
		CHANNELS	3	Yrotation	Xrotation	Zrotation
		JOINT	LeftKnee
		{
			OFFSET	-0.000	-43.200	0.000
			CHANNELS	3	Yrotation	Xrotation	Zrotation
			JOINT	LeftAnkle
			{
				OFFSET	0.062	-43.300	0.000
				CHANNELS	3	Yrotation	Xrotation	Zrotation
				End Site
				{
					OFFSET	-0.000	-6.231	13.152
				}
			}
		}
	}
	JOINT	RightHip
	{
		OFFSET	-8.100	0.000	-0.000
		CHANNELS	3	Yrotation	Xrotation	Zrotation
		JOINT	RightKnee
		{
			OFFSET	0.000	-43.200	0.000
			CHANNELS	3	Yrotation	Xrotation	Zrotation
			JOINT	RightAnkle
			{
				OFFSET	-0.063	-43.300	0.000
				CHANNELS	3	Yrotation	Xrotation	Zrotation
				End Site
				{
					OFFSET	-0.000	-6.231	13.152
				}
			}
		}
	}
}
MOTION
Frames:	26
Frame Time:	0.010
0.359	91.972	4.492	-83.964	-38.579	38.229	-4.309	1.550	-12.289	-8.927	2.145	-24.869	-48.430	49.092	-41.777	-22.160	-72.763	-30.539	-63.003	-5.748	-8.070	36.125	-1.898	84.446	-23.265	16.666	0.667	-23.265	16.666	0.667	30.603	57.136	32.023	18.029	-46.978	35.350	31.551	54.478	2.487	1.139	-0.652	269.803	22.599	-57.471	-29.684	-72.132	-26.196	-102.166	138.401	41.041	-0.610	47.410	-30.124	-63.998	48.324	-11.875	108.789	-124.590	11.109	-13.861	
0.361	91.970	4.490	-83.948	-38.581	38.223	-4.307	1.549	-12.287	-8.922	2.144	-24.865	-48.406	49.102	-41.777	-22.099	-72.806	-30.589	-63.007	-5.756	-8.114	36.121	-1.908	84.447	-23.241	16.652	0.680	-23.241	16.652	0.680	30.681	57.153	32.053	18.230	-46.944	35.212	31.950	55.008	2.507	1.152	-0.944	269.838	22.612	-57.463	-29.686	-72.137	-26.207	-102.164	138.390	41.040	-0.615	47.409	-30.120	-64.000	48.321	-11.872	108.792	-124.602	11.099	-13.871	
0.364	91.968	4.489	-83.928	-38.581	38.218	-4.306	1.550	-12.287	-8.921	2.145	-24.865	-48.376	49.111	-41.766	-22.109	-72.812	-30.586	-63.016	-5.765	-8.111	36.118	-1.916	84.442	-23.218	16.638	0.686	-23.218	16.638	0.686	30.773	57.166	32.095	18.405	-46.934	35.100	31.779	55.044	2.190	1.305	-0.841	269.691	22.621	-57.463	-29.695	-72.135	-26.207	-102.165	138.374	41.037	-0.624	47.407	-30.117	-64.007	48.324	-11.870	108.795	-124.606	11.094	-13.867	
0.368	91.966	4.489	-83.901	-38.584	38.208	-4.308	1.551	-12.286	-8.924	2.147	-24.864	-48.347	49.117	-41.753	-22.117	-72.813	-30.580	-63.029	-5.769	-8.111	36.112	-1.915	84.433	-23.154	16.614	0.704	-23.154	16.614	0.704	30.873	57.174	32.148	18.545	-46.954	35.013	31.504	55.011	1.791	1.340	-0.769	269.542	22.624	-57.464	-29.706	-72.130	-26.210	-102.164	138.366	41.033	-0.626	47.400	-30.118	-64.014	48.331	-11.866	108.794	-124.610	11.093	-13.864	
0.373	91.964	4.489	-83.871	-38.582	38.199	-4.309	1.550	-12.286	-8.926	2.146	-24.862	-48.319	49.120	-41.741	-22.134	-72.817	-30.562	-63.040	-5.767	-8.118	36.105	-1.902	84.427	-23.123	16.603	0.716	-23.123	16.603	0.716	30.953	57.179	32.196	18.689	-47.005	34.936	31.205	54.895	1.375	1.200	-0.670	269.293	22.636	-57.468	-29.723	-72.110	-26.200	-102.162	138.361	41.024	-0.607	47.397	-30.120	-64.017	48.336	-11.854	108.791	-124.613	11.088	-13.861	
0.379	91.961	4.490	-83.833	-38.579	38.186	-4.313	1.550	-12.285	-8.935	2.145	-24.860	-48.277	49.121	-41.724	-22.151	-72.817	-30.540	-63.052	-5.765	-8.137	36.103	-1.889	84.409	-23.091	16.595	0.727	-23.091	16.595	0.727	31.024	57.179	32.237	18.761	-47.089	34.902	30.846	54.733	0.903	0.447	-0.744	268.356	22.647	-57.475	-29.745	-72.101	-26.203	-102.162	138.355	41.019	-0.603	47.393	-30.125	-64.034	48.343	-11.849	108.791	-124.616	11.086	-13.856	
0.387	91.957	4.494	-83.794	-38.574	38.173	-4.318	1.555	-12.281	-8.945	2.154	-24.853	-48.245	49.105	-41.704	-22.182	-72.821	-30.506	-63.061	-5.760	-8.153	36.096	-1.868	84.398	-23.063	16.580	0.729	-23.063	16.580	0.729	31.055	57.170	32.245	18.784	-47.227	34.897	30.299	54.558	0.306	0.009	-0.787	267.900	22.663	-57.483	-29.770	-72.095	-26.203	-102.161	138.347	41.012	-0.599	47.390	-30.129	-64.051	48.348	-11.844	108.792	-124.618	11.083	-13.851	
0.394	91.953	4.498	-83.735	-38.555	38.153	-4.322	1.549	-12.279	-8.952	2.142	-24.848	-48.177	49.116	-41.696	-22.339	-72.803	-30.375	-63.071	-5.745	-8.141	36.097	-1.824	84.393	-23.037	16.576	0.737	-23.037	16.576	0.737	31.090	57.175	32.262	18.745	-47.397	34.945	29.659	54.327	-0.400	-0.506	-0.859	267.419	22.697	-57.507	-29.819	-72.086	-26.203	-102.161	138.329	41.011	-0.610	47.395	-30.141	-64.087	48.360	-11.849	108.808	-124.627	11.068	-13.831	
0.400	91.950	4.502	-83.696	-38.549	38.142	-4.326	1.549	-12.278	-8.961	2.141	-24.846	-48.144	49.126	-41.690	-22.407	-72.811	-30.311	-63.072	-5.741	-8.154	36.100	-1.812	84.403	-23.014	16.574	0.734	-23.014	16.574	0.734	31.203	57.201	32.336	18.656	-47.638	35.038	28.877	54.034	-1.258	-1.090	-0.987	266.917	22.723	-57.512	-29.853	-72.084	-26.202	-102.160	138.318	41.005	-0.607	47.397	-30.138	-64.104	48.364	-11.845	108.813	-124.634	11.061	-13.822	
0.406	91.946	4.508	-83.654	-38.544	38.130	-4.332	1.549	-12.277	-8.972	2.138	-24.845	-48.107	49.139	-41.683	-22.481	-72.824	-30.239	-63.068	-5.738	-8.171	36.101	-1.806	84.410	-22.986	16.573	0.738	-22.986	16.573	0.738	31.241	57.209	32.366	18.436	-48.079	35.322	27.122	52.994	-3.291	-1.202	-0.336	266.823	22.748	-57.518	-29.887	-72.077	-26.199	-102.161	138.306	40.999	-0.605	47.397	-30.136	-64.119	48.368	-11.839	108.813	-124.641	11.054	-13.817	
0.410	91.943	4.509	-83.619	-38.539	38.121	-4.336	1.549	-12.276	-8.980	2.138	-24.843	-48.055	49.156	-41.674	-22.539	-72.848	-30.164	-63.058	-5.750	-8.215	36.103	-1.800	84.420	-22.961	16.573	0.728	-22.961	16.573	0.728	31.297	57.213	32.416	18.252	-48.338	35.493	26.274	52.346	-4.269	-1.964	-0.507	266.313	22.775	-57.507	-29.894	-72.080	-26.224	-102.158	138.294	40.993	-0.605	47.403	-30.129	-64.129	48.370	-11.830	108.815	-124.650	11.043	-13.814	
0.416	91.941	4.514	-83.562	-38.546	38.106	-4.348	1.551	-12.278	-9.004	2.139	-24.846	-48.010	49.163	-41.664	-22.623	-72.850	-30.083	-63.052	-5.746	-8.219	36.107	-1.793	84.429	-22.902	16.583	0.728	-22.902	16.583	0.728	31.344	57.209	32.463	18.042	-48.633	35.694	25.467	51.610	-5.215	-2.668	-0.603	265.917	22.780	-57.510	-29.924	-72.064	-26.226	-102.159	138.281	40.986	-0.603	47.389	-30.117	-64.146	48.374	-11.827	108.821	-124.662	11.033	-13.804	
0.421	91.937	4.517	-83.526	-38.540	38.096	-4.354	1.553	-12.276	-9.017	2.142	-24.844	-47.960	49.161	-41.650	-22.693	-72.860	-30.015	-63.046	-5.735	-8.218	36.109	-1.783	84.430	-22.872	16.586	0.731	-22.872	16.586	0.731	31.384	57.201	32.507	17.829	-48.900	35.859	24.779	50.708	-6.102	-5.641	-2.848	264.631	22.795	-57.518	-29.939	-72.051	-26.228	-102.161	138.264	40.982	-0.608	47.403	-30.106	-64.134	48.374	-11.800	108.811	-124.674	11.023	-13.800	
0.432	91.932	4.523	-83.484	-38.535	38.084	-4.368	1.564	-12.273	-9.046	2.162	-24.838	-47.893	49.128	-41.622	-22.763	-72.872	-29.938	-63.051	-5.725	-8.225	36.113	-1.773	84.443	-22.846	16.575	0.741	-22.846	16.575	0.741	31.396	57.173	32.519	17.628	-49.180	36.029	24.081	49.717	-6.993	-7.048	-3.803	264.252	22.809	-57.526	-29.957	-72.030	-26.233	-102.164	138.254	40.976	-0.602	47.404	-30.105	-64.144	48.388	-11.793	108.815	-124.693	11.011	-13.807	
0.438	91.928	4.528	-83.443	-38.526	38.071	-4.370	1.569	-12.269	-9.051	2.171	-24.832	-47.881	49.109	-41.627	-22.760	-72.893	-29.918	-63.066	-5.720	-8.241	36.112	-1.764	84.446	-22.835	16.579	0.744	-22.835	16.579	0.744	31.410	57.186	32.570	17.435	-49.479	36.188	23.482	48.593	-7.861	-8.541	-4.931	264.054	22.827	-57.536	-29.978	-72.011	-26.235	-102.167	138.233	40.972	-0.621	47.409	-30.106	-64.154	48.399	-11.782	108.818	-124.703	10.998	-13.802	
0.446	91.922	4.533	-83.389	-38.502	38.053	-4.377	1.564	-12.268	-9.065	2.160	-24.829	-47.850	49.091	-41.631	-22.761	-72.905	-29.895	-63.094	-5.731	-8.190	36.116	-1.765	84.442	-22.815	16.590	0.744	-22.815	16.590	0.744	31.430	57.230	32.614	17.259	-49.801	36.355	22.961	47.335	-8.713	-9.758	-5.794	264.073	22.861	-57.561	-30.012	-71.995	-26.243	-102.168	138.220	40.967	-0.621	47.424	-30.120	-64.181	48.416	-11.775	108.823	-124.712	10.987	-13.788	
0.451	91.917	4.540	-83.354	-38.497	38.046	-4.382	1.567	-12.268	-9.076	2.165	-24.829	-47.829	49.076	-41.641	-22.745	-72.925	-29.884	-63.112	-5.744	-8.203	36.127	-1.773	84.440	-22.805	16.595	0.730	-22.805	16.595	0.730	31.432	57.333	32.651	16.887	-50.423	36.765	22.182	44.432	-10.370	-10.734	-5.328	264.488	22.878	-57.565	-30.029	-71.954	-26.224	-102.170	138.212	40.950	-0.585	47.428	-30.117	-64.184	48.431	-11.761	108.823	-124.720	10.975	-13.780	
0.454	91.914	4.545	-83.325	-38.491	38.042	-4.386	1.571	-12.268	-9.085	2.171	-24.829	-47.811	49.069	-41.704	-22.926	-72.923	-29.680	-63.124	-5.756	-8.204	36.142	-1.780	84.447	-22.790	16.602	0.722	-22.790	16.602	0.722	31.447	57.473	32.733	16.821	-50.793	36.856	21.931	42.846	-11.176	-12.290	-6.628	264.780	22.897	-57.567	-30.044	-71.939	-26.227	-102.171	138.198	40.943	-0.583	47.434	-30.111	-64.186	48.445	-11.753	108.827	-124.731	10.961	-13.773	
0.457	91.911	4.547	-83.298	-38.488	38.041	-4.390	1.574	-12.269	-9.093	2.176	-24.831	-47.804	49.063	-41.729	-22.954	-72.945	-29.627	-63.128	-5.762	-8.209	36.144	-1.784	84.460	-22.776	16.609	0.707	-22.776	16.609	0.707	31.412	57.540	32.725	16.656	-51.075	37.048	21.784	41.253	-11.948	-16.029	-11.154	265.772	22.914	-57.557	-30.029	-71.929	-26.260	-102.171	138.183	40.940	-0.581	47.439	-30.103	-64.189	48.458	-11.744	108.829	-124.739	10.952	-13.764	
0.459	91.908	4.551	-83.275	-38.483	38.038	-4.393	1.575	-12.269	-9.099	2.178	-24.831	-47.796	49.060	-41.761	-22.959	-72.984	-29.578	-63.122	-5.765	-8.245	36.152	-1.785	84.483	-22.765	16.616	0.673	-22.765	16.616	0.673	31.361	57.570	32.697	16.459	-51.292	37.248	21.721	39.686	-12.673	-17.712	-12.411	266.742	22.932	-57.558	-30.037	-71.910	-26.263	-102.174	138.168	40.934	-0.578	47.447	-30.098	-64.189	48.491	-11.748	108.851	-124.750	10.933	-13.726	
0.463	91.904	4.554	-83.251	-38.480	38.036	-4.401	1.577	-12.267	-9.116	2.181	-24.829	-47.780	49.040	-41.785	-23.033	-72.996	-29.480	-63.101	-5.757	-8.239	36.160	-1.774	84.501	-22.721	16.618	0.599	-22.721	16.617	0.599	31.268	57.589	32.610	16.264	-51.478	37.442	21.698	38.173	-13.352	-19.066	-13.264	267.754	22.949	-57.556	-30.048	-71.894	-26.266	-102.174	138.139	40.937	-0.598	47.461	-30.085	-64.172	48.494	-11.719	108.841	-124.759	10.925	-13.720	
0.465	91.901	4.558	-83.229	-38.478	38.034	-4.403	1.580	-12.266	-9.120	2.186	-24.827	-47.785	49.020	-41.817	-23.087	-73.010	-29.395	-63.073	-5.740	-8.242	36.167	-1.758	84.519	-22.699	16.610	0.560	-22.699	16.610	0.560	31.161	57.613	32.516	16.079	-51.653	37.620	21.691	36.731	-13.996	-20.485	-14.674	269.241	22.968	-57.554	-30.060	-71.881	-26.272	-102.176	138.125	40.935	-0.599	47.469	-30.079	-64.175	48.506	-11.709	108.846	-124.767	10.916	-13.714	
0.469	91.897	4.564	-83.189	-38.476	38.028	-4.413	1.579	-12.268	-9.140	2.182	-24.831	-47.768	48.999	-41.836	-23.143	-73.028	-29.316	-63.043	-5.709	-8.240	36.179	-1.748	84.526	-22.665	16.600	0.521	-22.665	16.600	0.521	31.078	57.651	32.426	15.900	-51.842	37.785	21.705	35.354	-14.574	-22.016	-15.954	270.669	22.991	-57.558	-30.095	-71.866	-26.275	-102.175	138.116	40.933	-0.592	47.468	-30.077	-64.192	48.519	-11.700	108.849	-124.770	10.909	-13.708	
0.470	91.893	4.572	-83.172	-38.475	38.027	-4.417	1.581	-12.268	-9.148	2.186	-24.830	-47.759	48.975	-41.868	-23.194	-73.044	-29.239	-63.003	-5.670	-8.190	36.176	-1.721	84.492	-22.622	16.594	0.490	-22.622	16.594	0.490	30.995	57.683	32.340	15.438	-52.212	38.105	21.818	32.565	-15.668	-22.953	-15.378	272.200	23.006	-57.555	-30.104	-71.856	-26.279	-102.175	138.105	40.933	-0.590	47.470	-30.077	-64.191	48.534	-11.690	108.849	-124.774	10.901	-13.707	
0.471	91.890	4.577	-83.156	-38.473	38.028	-4.420	1.584	-12.267	-9.155	2.189	-24.830	-47.753	48.949	-41.894	-23.184	-73.060	-29.224	-62.995	-5.668	-8.189	36.195	-1.766	84.543	-22.570	16.588	0.462	-22.570	16.588	0.462	30.907	57.731	32.249	15.179	-52.443	38.294	21.930	31.384	-16.073	-24.196	-16.515	273.708	23.020	-57.553	-30.115	-71.844	-26.282	-102.175	138.098	40.933	-0.584	47.470	-30.078	-64.193	48.549	-11.683	108.849	-124.778	10.895	-13.705	
0.472	91.888	4.581	-83.146	-38.473	38.030	-4.422	1.587	-12.267	-9.160	2.196	-24.830	-47.750	48.926	-41.919	-23.163	-73.080	-29.225	-62.987	-5.683	-8.190	36.189	-1.779	84.553	-22.501	16.581	0.431	-22.501	16.581	0.431	30.790	57.791	32.137	14.907	-52.684	38.498	22.093	30.298	-16.365	-26.543	-19.795	276.752	23.031	-57.550	-30.120	-71.834	-26.289	-102.175	138.092	40.933	-0.580	47.468	-30.082	-64.193	48.566	-11.676	108.848	-124.777	10.890	-13.702	
